<svg xmlns="http://www.w3.org/2000/svg" width="60" height="60" viewBox="0 0 60 60" fill="none"><rect width="60" height="60" rx="8" fill="#005B9D"></rect><g clip-path="url(#clip0_4753_6279)"><path d="M12.2732 20.6345C11.5719 20.6345 11 20.0625 11 19.3612V12.2732C11 11.5719 11.5719 11 12.2732 11H19.3612C20.0625 11 20.6345 11.5719 20.6345 12.2732C20.6345 12.9746 20.0625 13.5465 19.3612 13.5465H13.5465V19.368C13.5465 20.0693 12.9746 20.6413 12.2732 20.6413V20.6345Z" fill="#A8D3F2"></path><path d="M47.7267 20.6345C47.0254 20.6345 46.4535 20.0625 46.4535 19.3612V13.5465H40.632C39.9306 13.5465 39.3587 12.9746 39.3587 12.2732C39.3587 11.5719 39.9306 11 40.632 11H47.7199C48.4212 11 48.9932 11.5719 48.9932 12.2732V19.3612C48.9932 20.0625 48.4212 20.6345 47.7199 20.6345H47.7267Z" fill="#A8D3F2"></path><path d="M12.2732 49C11.5719 49 11 48.428 11 47.7267V40.6387C11 39.9374 11.5719 39.3655 12.2732 39.3655C12.9746 39.3655 13.5465 39.9374 13.5465 40.6387V46.4603H19.368C20.0693 46.4603 20.6413 47.0322 20.6413 47.7335C20.6413 48.4348 20.0693 49.0068 19.368 49.0068H12.2732V49Z" fill="#A8D3F2"></path><path d="M40.632 49C39.9306 49 39.3587 48.4281 39.3587 47.7268C39.3587 47.0255 39.9306 46.4535 40.632 46.4535H46.4535V40.632C46.4535 39.9307 47.0254 39.3588 47.7267 39.3588C48.428 39.3588 49 39.9307 49 40.632V47.72C49 48.4213 48.428 48.9932 47.7267 48.9932H40.6388L40.632 49Z" fill="#A8D3F2"></path></g><path d="M34.4 31.8571H33.9245C32.7021 32.4624 31.3605 32.7798 30 32.7857C28.5906 32.7857 27.2729 32.4375 26.0755 31.8571H25.6C23.8497 31.8576 22.1712 32.5621 20.9336 33.8159C19.696 35.0696 19.0005 36.7698 19 38.5429V40.2143C19 40.9531 19.2897 41.6617 19.8055 42.1841C20.3212 42.7065 21.0207 43 21.75 43H38.25C38.9793 43 39.6788 42.7065 40.1945 42.1841C40.7103 41.6617 41 40.9531 41 40.2143V38.5429C40.9995 36.7698 40.304 35.0696 39.0664 33.8159C37.8288 32.5621 36.1503 31.8576 34.4 31.8571ZM30 30C31.2691 30 32.5097 29.6188 33.5649 28.9046C34.6201 28.1903 35.4426 27.1752 35.9282 25.9874C36.4139 24.7997 36.541 23.4928 36.2934 22.2319C36.0458 20.971 35.4347 19.8128 34.5373 18.9038C33.6399 17.9948 32.4965 17.3757 31.2518 17.1249C30.0071 16.8741 28.7169 17.0028 27.5444 17.4948C26.372 17.9868 25.3698 18.8199 24.6647 19.8888C23.9597 20.9577 23.5833 22.2144 23.5833 23.5C23.5829 24.3537 23.7485 25.1992 24.0709 25.988C24.3932 26.7768 24.8658 27.4935 25.4617 28.0972C26.0577 28.7009 26.7652 29.1797 27.5439 29.5061C28.3226 29.8326 29.1572 30.0005 30 30Z" fill="#E6EFF5"></path><defs><clipPath id="clip0_4753_6279"><rect width="38" height="38" fill="white" transform="translate(11 11)"></rect></clipPath></defs></svg>