<svg xmlns="http://www.w3.org/2000/svg" width="60" height="60" viewBox="0 0 60 60" fill="none"><rect width="60" height="60" rx="8" fill="#005B9D"></rect><path d="M49.999 30.3882C49.9542 30.5071 49.9051 30.6251 49.8665 30.7451C49.5004 31.871 48.501 32.6453 47.3222 32.6474C41.5565 32.6568 35.7908 32.6599 30.0251 32.6464C28.5584 32.6432 27.3587 31.4411 27.3556 29.977C27.3431 24.2106 27.3462 18.4441 27.3545 12.6777C27.3566 11.5162 28.1171 10.5176 29.2187 10.144C29.3512 10.0991 29.4826 10.048 29.6141 10C35.6541 10 41.6942 10 47.7342 10C48.5125 10.2348 49.202 10.6 49.6078 11.344C49.7664 11.6362 49.8707 11.9576 50.0001 12.2655V30.3882H49.999ZM33.9882 21.3065C33.9882 22.829 33.985 24.3504 33.9882 25.8729C33.9913 26.9811 34.9135 27.5206 35.8628 26.955C38.3967 25.4451 40.9264 23.9278 43.453 22.4043C44.3825 21.8439 44.3814 20.8087 43.453 20.2484C40.9264 18.7259 38.3967 17.2076 35.8628 15.6976C34.9135 15.132 33.9923 15.6694 33.9892 16.7787C33.985 18.2876 33.9892 19.7965 33.9892 21.3065H33.9882Z" fill="#E6EFF5"></path><path d="M34.3001 43.3611C34.3001 45.1184 34.3001 46.8746 34.3001 48.6319C34.3001 49.5429 33.8452 49.9958 32.9324 49.9968C30.9285 49.9979 28.9245 50.0041 26.9205 49.9958C23.1119 49.9801 20.1628 46.9466 20.2431 43.1368C20.3151 39.7193 23.2037 36.7912 26.618 36.7275C28.7774 36.6868 30.9379 36.7129 33.0973 36.7202C33.8171 36.7223 34.2948 37.2294 34.2969 37.9745C34.3021 39.7704 34.298 41.5663 34.299 43.3622L34.3001 43.3611ZM27.6602 44.5278C28.1661 44.5278 28.6731 44.534 29.179 44.5267C29.8738 44.5152 30.3871 44.0206 30.3933 43.3674C30.3996 42.6995 29.879 42.1924 29.1613 42.1872C28.1619 42.1809 27.1615 42.1809 26.1621 42.1872C25.4455 42.1913 24.9239 42.6985 24.9291 43.3653C24.9343 44.0311 25.457 44.5205 26.1799 44.5278C26.6733 44.533 27.1667 44.5278 27.6602 44.5278Z" fill="#E6EFF5"></path><path d="M24.9885 20.1565V22.4982H24.5702C21.7327 22.4982 18.8953 22.4971 16.0568 22.4982C13.8515 22.5003 12.3545 23.9946 12.3534 26.1975C12.3514 30.2985 12.3514 34.3995 12.3534 38.5005C12.3545 40.6752 13.8608 42.1778 16.0359 42.183C16.6712 42.1841 17.3055 42.183 17.9314 42.183V44.5143C16.3405 44.5205 14.71 44.6979 13.1974 43.8829C11.9372 43.2036 10.967 42.2394 10.4726 40.8933C10.2212 40.2098 10.0376 39.4584 10.0303 38.7353C9.98958 34.4663 9.99584 30.1962 10.0146 25.9261C10.0292 22.782 12.6268 20.1826 15.7668 20.1618C18.8254 20.1409 21.884 20.1576 24.9875 20.1576L24.9885 20.1565Z" fill="#A8D3F2"></path><path d="M36.6566 47.649V39.0754C37.3774 39.0754 38.0899 39.0347 38.7951 39.088C39.347 39.1297 39.758 39.6306 39.7611 40.1951C39.7726 42.302 39.7736 44.4088 39.7611 46.5147C39.757 47.1241 39.2823 47.6166 38.6814 47.6427C38.0211 47.6709 37.3587 47.649 36.6566 47.649Z" fill="#E6EFF5"></path><path d="M36.3562 18.7238C37.8052 19.593 39.2145 20.4382 40.6927 21.3263C39.2271 22.207 37.8125 23.0564 36.3562 23.9309V18.7238Z" fill="#A8D3F2"></path></svg>