<svg xmlns="http://www.w3.org/2000/svg" width="60" height="60" viewBox="0 0 60 60" fill="none"><rect width="60" height="60" rx="8" fill="#005B9D"></rect><path d="M49.6041 49.6197H10V41.4636H49.6041V49.6197ZM40.0677 48.2708C42.5145 48.2708 44.9692 48.2708 47.416 48.2708C48.0277 48.2708 48.2709 48.0277 48.2709 47.416C48.2709 46.1612 48.2709 44.9064 48.2709 43.6516C48.2709 43.0399 48.0277 42.7968 47.416 42.7968C42.5145 42.7968 37.6131 42.7968 32.7116 42.7968C32.0999 42.7968 31.8646 43.0399 31.8567 43.6516C31.8567 44.8751 31.8567 46.0985 31.8567 47.3297C31.8567 48.0591 32.0685 48.2708 32.7978 48.2708C35.2211 48.2708 37.6444 48.2708 40.0599 48.2708H40.0677ZM16.815 45.5181C16.815 44.0124 15.5681 42.7811 14.0545 42.7968C12.5488 42.8125 11.3332 44.0516 11.341 45.5652C11.3567 47.0474 12.588 48.2708 14.078 48.263C15.5916 48.263 16.815 47.0317 16.8072 45.5181H16.815ZM23.6536 45.5417C23.6536 44.0281 22.4223 42.7968 20.9166 42.8047C19.403 42.8047 18.1875 44.0438 18.1875 45.5574C18.1875 47.0474 19.4187 48.2708 20.9088 48.2708C22.4223 48.2708 23.6536 47.0474 23.6614 45.5417H23.6536ZM30.4922 45.5495C30.4922 44.0359 29.2688 42.8047 27.763 42.8047C26.2494 42.8047 25.026 44.0359 25.026 45.5495C25.026 47.0396 26.2494 48.263 27.7395 48.2787C29.2531 48.2865 30.4922 47.0631 30.5 45.5574L30.4922 45.5495Z" fill="#E6EFF5"></path><path d="M10.8235 40.0364C11.6391 39.0953 12.4155 38.2091 13.1919 37.3229C13.2233 37.2915 13.2468 37.2602 13.2782 37.2288C13.6467 36.8131 13.9369 36.225 14.3996 36.0289C14.8937 35.8172 15.5446 35.9583 16.1328 35.9583C25.677 35.9583 35.2212 35.9583 44.7654 35.9583C45.0869 35.9583 45.3065 36.0446 45.5261 36.2955C46.5064 37.4484 47.5102 38.5777 48.4983 39.707C48.5768 39.8011 48.6552 39.8952 48.765 40.0364H10.8235Z" fill="#E6EFF5"></path><path d="M46.8827 44.1927V46.8748H33.2605V44.1927H46.8827Z" fill="#E6EFF5"></path><path d="M15.4426 45.5261C15.4426 46.2711 14.8387 46.8906 14.0937 46.8985C13.3487 46.9063 12.7213 46.3025 12.7134 45.5574C12.6977 44.7967 13.3173 44.1615 14.0858 44.1615C14.8309 44.1615 15.4426 44.781 15.4504 45.5182L15.4426 45.5261Z" fill="#E6EFF5"></path><path d="M20.9323 46.8985C20.1873 46.9063 19.5599 46.3025 19.5442 45.5574C19.5286 44.7967 20.1481 44.1615 20.9088 44.1615C21.6538 44.1615 22.2655 44.7732 22.2734 45.5182C22.2734 46.2633 21.6695 46.8828 20.9245 46.8907L20.9323 46.8985Z" fill="#E6EFF5"></path><path d="M26.3906 45.5025C26.4062 44.7574 27.0336 44.1614 27.7787 44.1693C28.5394 44.185 29.1511 44.828 29.1197 45.5887C29.0883 46.3259 28.4531 46.9219 27.7081 46.8984C26.9709 46.8749 26.367 46.2397 26.3906 45.4946V45.5025Z" fill="#E6EFF5"></path><path d="M29 14.6821V12H49.4765V14.6821H29Z" fill="#E6EFF5"></path><path d="M33.1251 21.7952C34.7093 20.2032 35.5876 18.3053 35.7915 16.0938H42.5438C42.8732 17.1525 43.085 18.2112 43.532 19.1601C43.979 20.1091 44.6456 20.956 45.2338 21.8736C42.4262 24.8772 36.6699 25.3086 33.1251 21.7873V21.7952ZM39.2265 22.9166C40.7401 22.9166 41.9713 21.6932 41.9713 20.1796C41.9713 18.6739 40.7401 17.4426 39.2265 17.4426C37.7364 17.4426 36.513 18.6661 36.5052 20.1561C36.4974 21.6697 37.7208 22.9088 39.2265 22.9166Z" fill="#E6EFF5"></path><path d="M46.2847 20.7834C44.9829 19.4816 44.2535 17.9445 44.0653 16.1094H48.0728C47.9473 17.8425 47.3356 19.3718 46.2847 20.7834Z" fill="#E6EFF5"></path><path d="M32.1919 20.7913C31.1332 19.3797 30.5293 17.8504 30.396 16.1094H34.4035C34.2309 17.9445 33.4859 19.4816 32.1919 20.7913Z" fill="#E6EFF5"></path><path d="M39.2344 18.8149C39.9794 18.8149 40.599 19.4266 40.6068 20.1638C40.6147 20.9245 39.9873 21.5519 39.2266 21.5441C38.4815 21.5363 37.8777 20.9167 37.8777 20.1717C37.8777 19.4266 38.4894 18.8149 39.2423 18.8149H39.2344Z" fill="#E6EFF5"></path><path fill-rule="evenodd" clip-rule="evenodd" d="M17 14C14.2386 14 12 16.2386 12 19V34H10V19C10 15.134 13.134 12 17 12H28V14H17Z" fill="#A8D3F2"></path><path d="M18.7179 29.1957C18.7179 28.8315 18.6855 28.4637 18.7251 28.1037C18.8001 27.4288 19.3954 26.9324 20.0779 26.931C20.759 26.9303 21.3824 27.4259 21.4278 28.1016C21.4776 28.8444 21.4776 29.5964 21.4264 30.3392C21.3796 31.0113 20.7453 31.5076 20.0671 31.4991C19.3925 31.4898 18.8015 31.0013 18.728 30.3413C18.6862 29.9642 18.7201 29.5778 18.7201 29.1957H18.7179ZM19.6174 29.1886C19.6174 29.4736 19.6123 29.7585 19.6188 30.0435C19.626 30.3813 19.8084 30.5856 20.0866 30.5806C20.3547 30.5756 20.5349 30.3778 20.5392 30.0556C20.5457 29.4943 20.5464 28.9329 20.5392 28.3715C20.5349 28.0494 20.354 27.8516 20.0851 27.848C19.8069 27.8437 19.626 28.0473 19.6188 28.3865C19.613 28.6537 19.6174 28.9208 19.6174 29.1886Z" fill="#A8D3F2"></path><path d="M24.8766 29.1957C24.8766 28.8315 24.8442 28.4637 24.8838 28.1037C24.9588 27.4288 25.5541 26.9324 26.2366 26.931C26.9177 26.9303 27.5411 27.4259 27.5865 28.1016C27.6363 28.8444 27.6363 29.5964 27.5851 30.3392C27.5382 31.0113 26.904 31.5076 26.2258 31.4991C25.5512 31.4898 24.9602 31.0013 24.8867 30.3413C24.8449 29.9642 24.8788 29.5778 24.8788 29.1957H24.8766ZM25.7761 29.1886C25.7761 29.4736 25.771 29.7585 25.7775 30.0435C25.7847 30.3813 25.9671 30.5856 26.2453 30.5806C26.5134 30.5756 26.6935 30.3778 26.6979 30.0556C26.7044 29.4943 26.7051 28.9329 26.6979 28.3715C26.6935 28.0494 26.5126 27.8516 26.2438 27.848C25.9656 27.8437 25.7847 28.0473 25.7775 28.3865C25.7717 28.6537 25.7761 28.9208 25.7761 29.1886Z" fill="#A8D3F2"></path><path d="M17.7699 23.2971C17.7699 23.6084 17.7786 23.9198 17.7685 24.2312C17.744 24.9819 17.1443 25.5632 16.4013 25.5675C15.6748 25.5718 15.0485 25.0033 15.0203 24.2698C14.9951 23.6127 14.9951 22.9528 15.0203 22.2957C15.0485 21.5601 15.6726 20.9959 16.402 21.0002C17.1465 21.0052 17.744 21.5851 17.7685 22.3364C17.7786 22.6564 17.7699 22.9771 17.7699 23.2971ZM16.8503 23.2978C16.8503 22.9949 16.856 22.6914 16.8488 22.3886C16.8416 22.1058 16.6607 21.9236 16.4027 21.9194C16.1454 21.9151 15.9422 22.0936 15.9364 22.3729C15.9241 22.9785 15.9249 23.5849 15.9364 24.1905C15.9414 24.4655 16.1504 24.654 16.3998 24.6512C16.6513 24.6483 16.8409 24.4569 16.8481 24.1798C16.856 23.8863 16.8503 23.5913 16.8503 23.2978Z" fill="#A8D3F2"></path><path d="M23.7558 23.3064C23.7558 23.6178 23.7638 23.9292 23.7544 24.2405C23.7321 24.974 23.1411 25.5497 22.4045 25.5675C21.6816 25.5847 21.0365 25.014 21.0077 24.287C20.981 23.6206 20.9825 22.9521 21.0077 22.2858C21.0344 21.5573 21.6708 20.988 22.3973 21.0002C23.1353 21.0123 23.7299 21.5858 23.7537 22.3186C23.7638 22.6472 23.7551 22.9778 23.7558 23.3064ZM22.8369 23.3099C22.8369 23.0078 22.842 22.7064 22.8355 22.4043C22.8297 22.1086 22.6459 21.9187 22.38 21.9187C22.1169 21.9187 21.9237 22.1101 21.9201 22.4043C21.9122 22.99 21.9129 23.5763 21.9201 24.162C21.9237 24.4527 22.1219 24.6519 22.3792 24.6519C22.6387 24.6519 22.8283 24.4541 22.8347 24.162C22.8412 23.8777 22.8369 23.5942 22.8369 23.3099Z" fill="#A8D3F2"></path><path d="M29.7414 23.2992C29.7414 23.6192 29.75 23.9399 29.7392 24.2598C29.7147 24.9833 29.1007 25.5647 28.3698 25.5676C27.6542 25.5697 27.0199 25.0033 26.994 24.2934C26.9695 23.6185 26.968 22.9407 26.994 22.2658C27.0228 21.5544 27.6592 20.9931 28.3763 21.0002C29.1122 21.0074 29.7169 21.5851 29.7399 22.3122C29.75 22.6407 29.7414 22.97 29.7414 23.2992ZM28.8232 23.2892C28.8232 22.9871 28.8297 22.6857 28.821 22.3836C28.8138 22.1058 28.6279 21.9223 28.372 21.9187C28.1161 21.9158 27.9136 22.0972 27.9086 22.3715C27.8985 22.975 27.8992 23.5785 27.9086 24.1827C27.9122 24.4563 28.1118 24.6484 28.3605 24.6519C28.6185 24.6562 28.816 24.4555 28.8225 24.1677C28.8289 23.8749 28.8239 23.5821 28.8239 23.2885L28.8232 23.2892Z" fill="#A8D3F2"></path><path d="M17.7702 29.2299C17.7702 29.5413 17.7789 29.8527 17.768 30.1641C17.7428 30.914 17.1425 31.4961 16.3994 31.499C15.6714 31.5025 15.0473 30.934 15.0192 30.2005C14.994 29.5435 14.9932 28.8835 15.0192 28.2265C15.048 27.493 15.6758 26.9259 16.4023 26.9316C17.1461 26.938 17.7435 27.5187 17.7673 28.27C17.7774 28.59 17.7688 28.9107 17.7688 29.2306L17.7702 29.2299ZM16.8506 29.2271C16.8506 28.9242 16.857 28.6207 16.8484 28.3179C16.8412 28.0386 16.6545 27.8515 16.4008 27.8486C16.1486 27.8458 15.9424 28.0301 15.9367 28.3065C15.9251 28.9121 15.9251 29.5185 15.9367 30.1241C15.9417 30.3998 16.15 30.5848 16.4023 30.5805C16.656 30.5762 16.8412 30.3884 16.8484 30.1091C16.8563 29.8156 16.8506 29.5213 16.8506 29.2271Z" fill="#A8D3F2"></path><path d="M20.1349 24.5926C20.2611 24.7169 20.4333 24.8197 20.5025 24.969C20.6315 25.2489 20.4146 25.5403 20.0809 25.5625C19.8214 25.5796 19.5598 25.5696 19.2996 25.5682C18.9429 25.566 18.7569 25.4439 18.7108 25.1839C18.6647 24.9247 18.7973 24.7547 19.1483 24.6312V22.3978C18.6221 22.1907 18.5537 21.8715 18.9479 21.4779C19.0301 21.3958 19.1166 21.3172 19.1951 21.2315C19.3573 21.0544 19.5418 20.9387 19.789 21.038C20.0355 21.1373 20.083 21.3437 20.0816 21.5851C20.0766 22.5021 20.0794 23.4191 20.0794 24.3362V24.6276C20.0982 24.6154 20.1162 24.6047 20.1349 24.5926Z" fill="#A8D3F2"></path><path d="M25.1382 24.6347V22.4078C24.6697 22.2521 24.4816 21.855 24.9623 21.4479C25.0575 21.3672 25.1432 21.2751 25.2297 21.1844C25.3868 21.0187 25.5721 20.9515 25.7883 21.0451C25.9922 21.1337 26.0672 21.3065 26.0665 21.5215C26.0643 22.0464 26.0665 22.5721 26.0665 23.097C26.0665 23.6041 26.0665 24.1112 26.0665 24.6354C26.122 24.6518 26.1724 24.6611 26.2186 24.6811C26.4333 24.7725 26.54 24.9347 26.5119 25.1675C26.4831 25.4046 26.3281 25.5439 26.1018 25.5582C25.771 25.5789 25.4366 25.5789 25.1057 25.5582C24.8636 25.5425 24.7158 25.3846 24.6877 25.1411C24.6603 24.9075 24.8059 24.7447 25.1389 24.6354L25.1382 24.6347Z" fill="#A8D3F2"></path><path d="M22.8377 28.3408C22.2935 28.098 22.2395 27.7987 22.6539 27.3874C22.749 27.2931 22.8449 27.1988 22.94 27.1038C23.0928 26.9517 23.2694 26.8853 23.4777 26.9731C23.6838 27.0602 23.7602 27.2274 23.7595 27.4452C23.7566 28.3987 23.7595 29.3521 23.7566 30.3056C23.7566 30.4649 23.7732 30.5649 23.9548 30.6498C24.0824 30.7098 24.1898 30.917 24.2092 31.0698C24.2337 31.2641 24.0946 31.4512 23.8842 31.4662C23.5015 31.494 23.1137 31.4955 22.731 31.469C22.5256 31.4548 22.4088 31.2883 22.3923 31.0769C22.3757 30.8663 22.4773 30.727 22.6575 30.6206C22.7317 30.5763 22.829 30.4877 22.8305 30.4177C22.8434 29.7235 22.8377 29.0293 22.8377 28.3408Z" fill="#A8D3F2"></path><path d="M28.6257 28.3408C28.0815 28.098 28.0275 27.7987 28.4419 27.3874C28.537 27.2931 28.6329 27.1988 28.728 27.1038C28.8808 26.9517 29.0574 26.8853 29.2657 26.9731C29.4718 27.0602 29.5482 27.2274 29.5475 27.4452C29.5446 28.3987 29.5475 29.3521 29.5446 30.3056C29.5446 30.4649 29.5612 30.5649 29.7428 30.6498C29.8704 30.7098 29.9778 30.917 29.9972 31.0698C30.0217 31.2641 29.8826 31.4512 29.6722 31.4662C29.2895 31.494 28.9017 31.4955 28.519 31.469C28.3136 31.4548 28.1969 31.2883 28.1803 31.0769C28.1637 30.8663 28.2653 30.727 28.4455 30.6206C28.5197 30.5763 28.617 30.4877 28.6185 30.4177C28.6315 29.7235 28.6257 29.0293 28.6257 28.3408Z" fill="#A8D3F2"></path></svg>