<svg xmlns="http://www.w3.org/2000/svg" width="60" height="60" viewBox="0 0 60 60" fill="none"><rect width="60" height="60" rx="8" fill="#005B9D"></rect><path d="M23.525 41.5637C22.6247 42.2387 21.7181 42.92 20.736 43.6586C20.6919 43.4485 20.5849 43.2065 20.5849 42.9646C20.5786 36.9408 20.5786 30.9234 20.5786 24.8996C20.5786 21.3656 20.5786 17.8316 20.5786 14.2975C20.5786 13.6226 20.6101 13.5844 21.2648 13.5844C25.017 13.5844 28.7692 13.5844 32.5151 13.5844C33.1887 13.5844 33.2265 13.6289 33.2265 14.3294C33.2265 23.7917 33.2265 33.2539 33.2139 42.7162C33.2139 43.0028 33.0565 43.2893 32.981 43.5377C32.0303 42.8372 31.1678 42.2005 30.2864 41.551C31.3378 40.4112 31.8666 39.0294 31.6274 37.3993C31.4511 36.2085 30.9034 35.2279 30.0094 34.4447C28.1963 32.8591 25.464 32.9356 23.6823 34.5657C22.1273 35.9857 21.2397 39.0421 23.5187 41.5573L23.525 41.5637ZM26.9372 19.4298C28.0263 19.4298 29.1218 19.4235 30.2109 19.4298C30.5697 19.4298 30.7523 19.3088 30.7523 18.9268C30.7523 18.2964 30.7523 17.666 30.7523 17.042C30.7523 16.7236 30.6075 16.5644 30.2801 16.5644C28.0326 16.5644 25.7914 16.5644 23.5438 16.5644C23.1976 16.5644 23.0465 16.7172 23.0528 17.0674C23.0591 17.666 23.0717 18.2646 23.0528 18.8631C23.0402 19.2834 23.2102 19.4362 23.6194 19.4362C24.7274 19.4235 25.8354 19.4362 26.9435 19.4362L26.9372 19.4298ZM25.9865 24.6449C25.9865 24.3074 25.9802 23.9699 25.9865 23.6325C25.9991 23.2822 25.8292 23.1231 25.4955 23.1231C24.8407 23.1231 24.1923 23.1231 23.5375 23.1231C23.2291 23.1231 23.0528 23.2631 23.0591 23.5943C23.0591 24.2692 23.0654 24.9442 23.0591 25.6192C23.0591 25.9503 23.2165 26.0967 23.5313 26.0967C24.1986 26.0967 24.8659 26.0967 25.5333 26.0967C25.8543 26.0967 25.9991 25.9375 25.9928 25.6064C25.9865 25.2817 25.9928 24.9633 25.9928 24.6385L25.9865 24.6449ZM23.0528 29.427C23.0528 29.7645 23.0591 30.102 23.0528 30.4395C23.0465 30.7642 23.1913 30.9298 23.5124 30.9361C24.1797 30.9361 24.847 30.9361 25.5144 30.9361C25.8292 30.9361 25.9865 30.7897 25.9865 30.4586C25.9802 29.7836 25.9865 29.1086 25.9865 28.4337C25.9865 28.128 25.8543 27.9688 25.5521 27.9688C24.8659 27.9688 24.186 27.9688 23.4998 27.9688C23.1787 27.9688 23.0402 28.1471 23.0528 28.4655C23.0654 28.7902 23.0528 29.1086 23.0528 29.4334V29.427ZM30.7523 24.6576C30.7523 24.3074 30.7523 23.9508 30.7523 23.6006C30.7523 23.3077 30.6201 23.1358 30.3179 23.1294C29.638 23.1294 28.9518 23.1294 28.2718 23.1294C27.9822 23.1294 27.8186 23.295 27.8186 23.5879C27.8186 24.282 27.8186 24.9697 27.8186 25.6637C27.8186 25.9439 27.9634 26.0967 28.2404 26.1031C28.9392 26.1095 29.638 26.1031 30.3368 26.1031C30.6138 26.1031 30.7586 25.9566 30.7586 25.6765C30.7586 25.339 30.7586 25.0015 30.7586 24.664L30.7523 24.6576ZM30.7523 29.4461C30.7523 29.1086 30.7523 28.7711 30.7523 28.4337C30.7523 28.1089 30.5949 27.9561 30.2739 27.9624C29.6065 27.9624 28.9392 27.9624 28.2718 27.9624C27.9822 27.9624 27.8123 28.1089 27.8123 28.4082C27.8123 29.1023 27.8123 29.79 27.8123 30.484C27.8123 30.7833 27.9822 30.9361 28.2718 30.9361C28.9518 30.9361 29.638 30.9361 30.3179 30.9361C30.5886 30.9361 30.7397 30.7833 30.746 30.5095C30.746 30.1593 30.746 29.8027 30.746 29.4525L30.7523 29.4461Z" fill="#97C3E2"></path><path d="M19.0992 19.4299V36.5397C18.3122 34.241 16.8202 32.8656 14.4152 32.8656C12.0166 32.8656 10.5245 34.2283 9.70612 36.4506C9.70612 36.3169 9.70612 36.1895 9.70612 36.0558C9.70612 30.898 9.70612 25.7402 9.70612 20.5825C9.70612 19.6146 9.89498 19.4299 10.8519 19.4299C13.4331 19.4299 16.0143 19.4299 18.5892 19.4299C18.7529 19.4299 18.9166 19.4299 19.0992 19.4299ZM15.8758 25.0398C15.8758 24.7023 15.8695 24.3648 15.8758 24.0274C15.8884 23.6708 15.7184 23.5307 15.3785 23.5307C14.7237 23.537 14.0753 23.5307 13.4205 23.5307C13.1057 23.5307 12.9421 23.6644 12.9421 24.0019C12.9421 24.6769 12.9421 25.3518 12.9421 26.0268C12.9421 26.3579 13.1057 26.498 13.4205 26.498C14.0753 26.498 14.7237 26.498 15.3785 26.498C15.7121 26.498 15.8884 26.3515 15.8758 26.0013C15.8632 25.6766 15.8758 25.3582 15.8758 25.0334V25.0398ZM15.8758 29.8537C15.8758 29.5162 15.8758 29.1788 15.8758 28.8413C15.8758 28.5229 15.7499 28.351 15.4162 28.3573C14.7489 28.3573 14.0816 28.3573 13.4142 28.3573C13.0932 28.3573 12.9421 28.5038 12.9421 28.8285C12.9421 29.5035 12.9421 30.1785 12.9421 30.8534C12.9421 31.1527 13.0743 31.3119 13.3765 31.3119C14.0627 31.3119 14.7426 31.3119 15.4288 31.3119C15.731 31.3119 15.8758 31.1655 15.8758 30.8598C15.8758 30.5223 15.8758 30.1848 15.8758 29.8474V29.8537Z" fill="#97C3E2"></path><path d="M43.6583 35.7438C43.1546 34.8205 42.5188 34.0818 41.6626 33.5215C41.5493 33.4451 41.4863 33.2158 41.4863 33.0566C41.4737 31.9232 41.4863 30.7834 41.48 29.6499C41.48 29.0705 41.203 28.733 40.7497 28.7394C40.3027 28.7394 40.0257 29.0896 40.0257 29.6691C40.0257 30.7261 40.0257 31.7831 40.0257 32.8592H38.3574C38.3574 31.9359 38.3574 31.019 38.3574 30.102C38.3574 29.9047 38.37 29.7009 38.3574 29.5035C38.3259 29.0387 38.0111 28.7266 37.6082 28.7394C37.199 28.7521 36.9094 29.0578 36.9094 29.5417C36.9031 30.707 36.8968 31.8786 36.9094 33.0439C36.9094 33.3241 36.8276 33.4833 36.5883 33.6297C35.7699 34.1391 35.2033 34.8841 34.7248 35.7374C34.7185 35.5909 34.7059 35.4509 34.7059 35.3044C34.7059 31.14 34.7059 26.9819 34.6996 22.8175C34.6996 22.4673 34.7815 22.2826 35.1277 22.1362C37.7341 21.0091 40.3279 19.8502 42.9217 18.704C43.5072 18.4493 43.6835 18.5575 43.6835 19.1752C43.6835 24.5941 43.6835 30.0193 43.6835 35.4381C43.6835 35.54 43.6709 35.6419 43.6646 35.7438H43.6583ZM39.1695 26.3324C39.9565 26.3324 40.7497 26.326 41.5367 26.3324C41.9207 26.3324 42.097 26.1669 42.0907 25.7784C42.0844 25.3327 42.0907 24.887 42.0907 24.4412C42.0907 24.1101 41.9522 23.9318 41.5996 23.9318C39.988 23.9318 38.3826 23.9318 36.7709 23.9318C36.4498 23.9318 36.2924 24.0846 36.2924 24.403C36.2924 24.836 36.2924 25.2627 36.2924 25.6957C36.2924 26.2178 36.3932 26.3197 36.8968 26.326C37.6586 26.326 38.4141 26.326 39.1758 26.326L39.1695 26.3324Z" fill="#97C3E2"></path><path d="M41.6059 50.7204C42.1096 50.1154 41.9711 49.5806 41.7004 48.9502C41.4989 48.479 41.2849 48.167 40.8001 48.0651C40.7875 48.0651 40.7686 48.0523 40.756 48.046C40.265 47.683 40.6238 47.1736 40.5483 46.7342C40.5231 46.6005 40.6805 46.3203 40.7875 46.3012C41.7507 46.1293 41.6437 45.1805 42.0026 44.582C42.0781 44.4483 41.8829 44.1299 41.7759 43.9134C41.6752 43.7033 41.6689 43.5504 41.8641 43.3976C41.9711 43.3148 42.0781 43.2193 42.1537 43.1047C42.5125 42.5953 42.9217 42.4361 43.4757 42.8182C43.5702 42.8818 43.759 42.8436 43.8849 42.799C44.0549 42.7481 44.206 42.608 44.376 42.5698C44.93 42.4488 45.3015 42.1687 45.3959 41.5765C45.3959 41.5446 45.4148 41.5001 45.4337 41.4937C45.8807 41.4427 46.3339 41.3791 46.7809 41.3663C46.8942 41.3663 47.0894 41.5128 47.1146 41.6274C47.2405 42.1432 47.5301 42.4488 48.0526 42.538C48.1534 42.5571 48.2667 42.5953 48.3422 42.6653C48.6885 42.9455 49.0285 42.9009 49.3747 42.6717C49.6265 42.5061 49.8469 42.5125 50.0358 42.7863C50.1113 42.8946 50.212 43.0028 50.3254 43.0792C50.7975 43.4103 50.8857 43.7988 50.5709 44.3018C50.4953 44.4228 50.5457 44.6393 50.5898 44.8048C50.6338 44.9768 50.7786 45.1296 50.8101 45.3079C50.9045 45.8491 51.1941 46.1739 51.7293 46.2821C51.8237 46.3012 51.9622 46.4222 51.9685 46.505C51.9937 46.9507 52.0063 47.3965 51.9559 47.8358C51.9433 47.9441 51.6978 48.0587 51.5341 48.1096C51.1879 48.2179 50.9423 48.3835 50.892 48.7782C50.8794 48.8992 50.829 49.0202 50.7597 49.1157C50.445 49.5678 50.445 50.0136 50.7472 50.4657C50.7723 50.5039 50.8101 50.5739 50.7975 50.5867C50.5079 50.9432 50.2309 51.3062 49.9161 51.6309C49.8343 51.7137 49.5825 51.7392 49.4943 51.6755C48.6948 51.1024 48.1219 51.8984 47.4357 52.0194C47.3475 52.0321 47.2657 52.2677 47.2405 52.4142C47.1524 52.8854 46.8817 53.0446 46.4347 52.9618C46.3906 52.9554 46.3402 52.9554 46.2962 52.9618C45.717 53.0573 45.3078 52.9108 45.1881 52.2486C45.1692 52.1276 44.9867 52.0194 44.8545 51.9366C44.7286 51.8602 44.5586 51.8474 44.4327 51.771C43.9353 51.4654 43.4568 51.3508 42.928 51.7201C42.8588 51.771 42.6447 51.6946 42.5503 51.6118C42.2355 51.3444 41.9522 51.0515 41.5933 50.7076L41.6059 50.7204ZM48.9529 47.1672C48.9529 45.6581 47.7567 44.4483 46.271 44.4355C44.7726 44.4228 43.5576 45.6645 43.5576 47.1863C43.5576 48.6891 44.76 49.9117 46.2458 49.9181C47.7379 49.9308 48.9592 48.6891 48.9529 47.1672Z" fill="#E6EFF5"></path><path d="M26.9183 48.3135C25.0548 48.3135 23.185 48.3135 21.3215 48.3135C20.566 48.3135 20.4024 48.0906 20.5912 47.3456C21.3341 44.4356 23.9846 42.3661 26.9561 42.3916C29.9654 42.4107 32.5781 44.4993 33.2895 47.4475C33.4343 48.0588 33.2454 48.3135 32.6158 48.3135C30.7209 48.3135 28.8196 48.3135 26.9246 48.3135H26.9183Z" fill="#E6EFF5"></path><path d="M18.8788 47.8678H18.5263C15.3092 47.8678 12.0984 47.8678 8.88138 47.8678C8.05036 47.8678 7.86149 47.6322 8.10073 46.8298C8.88138 44.1936 10.6253 42.5444 13.2883 42.0605C15.9199 41.5893 18.0793 42.5381 19.7287 44.6776C19.9113 44.9132 19.9113 45.0915 19.798 45.3716C19.4769 46.1549 19.2125 46.9699 18.8851 47.8614L18.8788 47.8678Z" fill="#E6EFF5"></path><path d="M26.9246 41.4683C25.08 41.4683 23.6005 39.9719 23.6068 38.1061C23.6068 36.2723 25.0989 34.7759 26.9183 34.7759C28.7566 34.7759 30.255 36.2977 30.2424 38.1444C30.2298 39.9846 28.744 41.4683 26.9246 41.4683Z" fill="#E6EFF5"></path><path d="M14.3964 41.0097C12.5643 41.0097 11.1101 39.5324 11.1038 37.6731C11.1038 35.801 12.5769 34.3046 14.4215 34.3173C16.2536 34.3237 17.7079 35.801 17.7141 37.654C17.7204 39.5261 16.2473 41.0097 14.3964 41.0097Z" fill="#E6EFF5"></path><path d="M42.4936 37.6795C42.4874 39.5516 41.0079 41.0225 39.1507 41.0098C37.325 40.9907 35.8707 39.5006 35.8833 37.654C35.8896 35.801 37.3501 34.3301 39.1822 34.3238C41.0268 34.3174 42.4999 35.8138 42.4936 37.6859V37.6795Z" fill="#E6EFF5"></path><path d="M40.9323 42.2387C40.8757 42.3023 40.8379 42.3724 40.7812 42.417C40.0698 42.9264 39.7676 43.5122 40.3594 44.34C40.5357 44.582 40.3909 44.8367 40.1076 44.964C40.0824 44.9767 40.051 44.9895 40.0258 45.0022C39.3878 45.2739 39.0688 45.7557 39.0688 46.4477V47.8231H34.983C34.599 46.8552 34.2212 45.9128 33.8624 44.9704C33.8246 44.8812 33.8561 44.7348 33.9064 44.6456C35.153 42.608 38.5337 41.3918 40.8001 42.1623C40.8379 42.175 40.8694 42.2068 40.926 42.245L40.9323 42.2387Z" fill="#E6EFF5"></path><path d="M26.1691 10.3878C26.1691 9.89751 26.1691 9.47088 26.1691 9.04425C26.1691 8.35018 26.4273 7.99359 26.912 7.99996C27.3842 8.00633 27.6234 8.34381 27.6234 9.01878C27.6234 9.45815 27.6234 9.90388 27.6234 10.3878C28.4859 10.3878 29.3044 10.3878 30.1165 10.3878C30.6516 10.3878 30.7146 10.4579 30.7209 11.0055C30.7209 11.3557 30.7209 11.7059 30.7209 12.0816H23.0843C23.0843 11.6168 23.0465 11.1583 23.1095 10.7189C23.1284 10.5852 23.4306 10.4069 23.6068 10.4006C24.4379 10.3687 25.2689 10.3878 26.1691 10.3878Z" fill="#97C3E2"></path><path d="M11.003 41.2135C10.6442 41.4236 10.2224 41.672 9.7439 41.9458V39.0294C10.1153 39.6662 10.5497 40.4303 11.003 41.2071V41.2135Z" fill="#E6EFF5"></path><path d="M19.1118 41.965C18.6207 41.6784 18.1926 41.4301 17.8212 41.2136C18.2682 40.4367 18.7088 39.6726 19.1118 38.9722V41.9713V41.965Z" fill="#E6EFF5"></path><path d="M34.7249 41.8121V39.577C35.1026 40.131 35.4614 40.6468 35.8329 41.188C35.4866 41.3791 35.1278 41.5828 34.7249 41.8121Z" fill="#E6EFF5"></path><path d="M42.7832 40.9079C43.0791 40.4367 43.3435 39.9973 43.6394 39.5261V41.2963C43.3309 41.1562 43.0476 41.0289 42.7832 40.9079Z" fill="#E6EFF5"></path></svg>