<svg xmlns="http://www.w3.org/2000/svg" width="60" height="60" viewBox="0 0 60 60" fill="none"><rect width="60" height="60" rx="8" fill="#005B9D"></rect><path d="M41.2495 41.2063C41.8112 38.842 41.9788 36.4778 42.0375 34.1052C42.0794 32.4318 41.2747 31.283 39.682 30.7502C36.8488 29.8012 34.0155 28.8854 31.1823 27.9364C30.3692 27.67 29.5896 27.6783 28.7765 27.9364C25.9433 28.8854 23.11 29.8095 20.2768 30.7502C18.7931 31.2414 17.9213 32.4235 17.9548 33.9803C18.0051 36.3862 18.1644 38.7838 18.726 41.1481C15.021 41.4894 11.5758 41.1064 9.09463 37.9263C6.09373 34.0719 7.48521 28.3027 11.953 26.1049C12.2464 25.9634 12.3638 25.8302 12.3554 25.4805C12.2548 21.3846 15.6329 18.4126 19.7571 18.9704C20.1007 19.0204 20.1846 18.8206 20.3103 18.6041C21.8443 15.9485 24.0572 14.067 26.9911 13.118C33.9652 10.8702 41.0484 14.9578 42.6075 22.0756C42.6578 22.317 42.6997 22.5668 42.7332 22.8082C42.8422 23.649 42.8506 23.6657 43.6804 23.6657C47.5112 23.6657 50.9145 26.1299 52.0796 29.7512C53.6807 34.7212 50.554 39.9326 45.3234 40.9899C44.8372 41.0898 44.3343 41.1647 43.8397 41.1897C42.9931 41.223 42.1381 41.198 41.2579 41.198L41.2495 41.2063Z" fill="#E6EFF5"></path><path d="M39 35.2058C38.8826 38.0941 38.585 40.944 37.3245 43.6095C35.8604 46.7129 33.3706 48.7101 30.1997 49.9699C30.0665 50.0236 29.863 50.0006 29.7221 49.9391C25.2749 48.1647 22.5659 44.9615 21.5794 40.3602C21.1644 38.4398 21.0157 36.4886 21 34.5221C21 34.0536 21.2114 33.7924 21.6577 33.6464C24.3197 32.7784 26.9739 31.895 29.6438 31.0501C29.9021 30.9656 30.231 30.9963 30.4972 31.0808C33.0887 31.9104 35.6725 32.7554 38.2562 33.608C38.8747 33.8078 39 33.9998 39 34.6527C39 34.8371 39 35.0215 39 35.2058ZM28.9469 40.4139C28.6024 40.0452 28.3441 39.7149 28.0309 39.4384C27.4202 38.893 26.5198 38.9314 25.9639 39.4921C25.4158 40.0375 25.3845 40.9209 25.9326 41.4894C26.6842 42.2652 27.4593 43.0257 28.2501 43.7631C28.9234 44.3853 29.9648 44.2855 30.458 43.5327C31.7655 41.5355 33.0418 39.5229 34.3023 37.5026C34.7642 36.7652 34.4197 35.8511 33.6368 35.49C32.9165 35.1597 32.157 35.3902 31.6951 36.1046C30.7947 37.5026 29.91 38.9007 28.9469 40.4139Z" fill="#A8D3F2"></path></svg>