<?xml version="1.0" encoding="UTF-8"?>
<svg xmlns="http://www.w3.org/2000/svg" width="130" height="55" viewBox="0 0 130 55" fill="none">
  <path fill-rule="evenodd" clip-rule="evenodd" d="M28.6854 13.774C47.4381 3.91978 72.7785 2.20378 93.3759 2.94084C113.834 3.67281 129.616 6.8222 129.616 6.8222C129.616 6.8222 103.162 0.0256936 72.3733 0.238284C72.3639 0.238284 72.3541 0.237965 72.3443 0.237647C72.3345 0.237328 72.3247 0.23701 72.3152 0.23701C32.3762 0.23701 0 12.4437 0 27.5032C0 27.5486 0.00460296 27.6486 0.00843433 27.7318C0.0111656 27.7911 0.0135047 27.842 0.0135047 27.8584C0.249838 34.8013 7.36144 41.1166 18.9066 45.8827L16.2111 38.4102C17.4495 39.6743 18.8985 40.8837 20.5366 42.0408C27.0851 46.658 36.6519 50.3382 48.0107 52.529C55.464 53.9662 63.6789 54.7669 72.3152 54.7669C73.8246 54.7669 75.3137 54.7142 76.7908 54.6619C77.5036 54.6367 78.2135 54.6116 78.9217 54.5925C82.0765 54.5047 86.872 54.0145 86.872 54.0145C86.872 54.0145 77.1499 54.0871 64.9862 51.8912C14.3123 42.0128 22.7717 19.519 37.1475 11.3795C13.9571 21.2821 16.9241 31.1797 21.0728 36.4244C13.4737 29.5706 13.9086 21.538 28.6854 13.774ZM47.3801 22.7053H42.7263V40.074H47.3801V22.7053ZM42.7276 18.0322H47.3801V13.8249H42.7276V18.0322ZM52.9778 23.5977V23.9847L52.9858 24.3768C53.0115 25.1558 53.4153 25.5416 54.2054 25.5339C55.0332 25.5416 55.4627 25.0947 55.4964 24.2087L55.5018 23.5493V22.9548C55.5018 22.6913 55.4923 22.4444 55.4586 22.2127C55.4208 21.9173 55.3181 21.6755 55.1574 21.4858C54.9035 21.2109 54.3782 21.0734 53.5923 21.0734H52.6644V19.2746H53.5112C54.4134 19.2937 55.0116 19.1206 55.2978 18.7501C55.4289 18.5732 55.4978 18.3631 55.5032 18.1098V17.5153V16.707C55.5032 15.8974 55.1129 15.5002 54.3242 15.5117C53.5112 15.5257 53.1075 15.9101 53.1182 16.6701V17.094H50.0432V16.763C50.0377 16.3912 50.081 16.0323 50.1823 15.6809C50.4267 14.7223 51.1087 14.1317 52.212 13.9128C52.8617 13.7816 53.5437 13.7129 54.2553 13.7129C54.9994 13.7129 55.649 13.7625 56.2162 13.858C57.3803 14.0566 58.1096 14.6562 58.3959 15.6517C58.5133 16.0756 58.5755 16.4689 58.5809 16.8381V17.3486C58.5741 18.7666 58.1299 19.6336 57.2466 19.9518L56.6471 20.1517C57.8259 20.3884 58.4634 21.0543 58.5552 22.1452L58.5809 22.9637V23.5481C58.5741 24.2621 58.5404 24.7676 58.4891 25.0616C58.3851 25.6255 58.1352 26.0762 57.7341 26.4174C57.0198 27.0259 55.8718 27.3301 54.2796 27.3301C53.6422 27.3339 53.0399 27.2855 52.47 27.1786C51.842 27.0793 51.3275 26.8922 50.9332 26.6248C50.5307 26.3537 50.2687 26.0087 50.1363 25.5887C50.0161 25.2692 49.9406 24.9114 49.9271 24.5168L49.9041 24.0063V23.5964H52.9778V23.5977ZM51.584 32.3674H52.6995V40.004H51.584V32.3674ZM55.6747 32.3674L57.7787 38.9475V32.3674H58.8239V40.0028H57.0751L54.9751 33.494V40.0028H53.9298V32.3674H55.6747ZM64.5648 33.2292V32.3674H59.7032V33.2292H61.5762V40.0028H62.6917V33.2292H64.5648ZM65.4953 32.3674H69.1443V33.2292H66.6108V35.6491H68.9903V36.511H66.6108V39.1422H69.2173V40.0028H65.4953V32.3674ZM71.6264 35.6745V33.229H72.4908C72.9864 33.2304 73.324 33.2952 73.5076 33.4175C73.7548 33.5817 73.8804 33.8796 73.8804 34.306C73.8804 34.6994 73.8358 34.9795 73.7521 35.1501C73.6238 35.4059 73.3848 35.5662 73.0404 35.6248C72.8635 35.6593 72.6609 35.6745 72.4259 35.6745H71.6264ZM73.0363 32.3672H72.3692V32.366H70.5123V40.0027H71.6264V36.5363H72.3976C72.6136 36.5363 72.8095 36.5567 72.9824 36.6C73.3835 36.7107 73.609 37.0379 73.6616 37.5878L73.6995 38.3032L73.7399 38.9907C73.7508 39.2032 73.7724 39.3789 73.802 39.5151L73.9128 40.0027H75.0742C74.9878 39.7353 74.9352 39.5304 74.9121 39.3916C74.873 39.1981 74.8392 38.9296 74.8217 38.5833L74.7758 37.6859C74.7636 37.4121 74.7393 37.1804 74.7001 36.9768C74.6434 36.6738 74.4935 36.4536 74.2532 36.3174C74.0884 36.2219 73.8142 36.1557 73.4374 36.1163C74.0452 36.0182 74.4571 35.831 74.6691 35.5497C74.8838 35.2557 74.9932 34.8267 74.9932 34.2678C74.9838 33.1973 74.5638 32.5888 73.7413 32.4386C73.5279 32.394 73.2916 32.3698 73.0363 32.3672ZM78.0872 32.3674L80.1898 38.9475V32.3674H81.2351V40.0028H79.4876L77.3863 33.494V40.0028H76.3383V32.3674H78.0872ZM85.5958 37.3983H83.8267L84.7396 33.331L85.5958 37.3983ZM85.4931 32.3674H84.0279L82.1602 40.004H83.2405L83.6349 38.2613H85.8024L86.1873 40.004H87.3595L85.4931 32.3674ZM92.8411 32.3674V33.2292H90.968V40.0028H89.8538V33.2292H87.9808V32.3674H92.8411ZM93.9931 32.3674H95.1058V40.004H93.9931V32.3674ZM97.4734 37.3829C97.4772 38.0245 97.519 38.442 97.5933 38.633C97.6713 38.8265 97.8178 38.9793 98.0272 39.0899C98.2375 39.1995 98.4535 39.2568 98.6752 39.2504C98.8779 39.2568 99.0739 39.2109 99.2594 39.1154C99.6134 38.9487 99.8056 38.6584 99.8408 38.2396C99.858 38.0028 99.8703 37.7152 99.8741 37.3842V34.8267C99.878 34.2743 99.8247 33.886 99.7133 33.6619C99.5354 33.2966 99.1909 33.1184 98.6723 33.1196C98.4735 33.1196 98.286 33.1591 98.109 33.2342C97.7446 33.3819 97.5438 33.6798 97.4991 34.1215C97.4762 34.3239 97.4648 34.5582 97.4705 34.8254V37.3829H97.4734ZM96.3601 34.8306C96.3629 34.2055 96.4143 33.7485 96.5085 33.4544C96.6579 32.9974 96.9871 32.6703 97.4953 32.4743C97.8606 32.3279 98.2555 32.2578 98.678 32.2578C99.0948 32.2578 99.4907 32.3279 99.8608 32.4743C100.358 32.6703 100.686 32.9974 100.837 33.4544C100.933 33.7435 100.985 34.203 100.992 34.8306V37.3892C100.992 37.8526 100.971 38.2524 100.929 38.5833C100.804 39.5941 100.063 40.1059 98.7104 40.1135C97.7255 40.1135 97.068 39.8767 96.735 39.4032C96.4819 39.0467 96.3562 38.3758 96.362 37.3906V34.8306H96.3601ZM106.053 38.9475L103.952 32.3674H102.204V40.0028H103.25V33.494L105.353 40.0028H107.101V32.3674H106.053V38.9475ZM109.692 37.3983H111.463L110.608 33.331L109.692 37.3983ZM109.891 32.3674H111.357L113.226 40.004H112.053L111.668 38.2613H109.502L109.106 40.004H108.024L109.891 32.3674ZM115.329 32.3674H114.215V40.0028H117.69V39.1422H115.329V32.3674Z" fill="#005B9D"></path>
  <path d="M126.12 4.07574V0.233398H126.714L128.073 3.62454H128.082L129.412 0.233398H130V4.07574H129.615V0.650577H129.601L128.246 4.07574H127.879L126.519 0.650577H126.509V4.07574H126.12Z" fill="#005B9D"></path>
  <path d="M122.571 0.23514H125.579V0.544894H124.271V4.07569H123.886V0.544894H122.571V0.23514Z" fill="#005B9D"></path>
</svg>
