<svg xmlns="http://www.w3.org/2000/svg" width="60" height="60" viewBox="0 0 60 60" fill="none"><rect width="60" height="60" rx="8" fill="#005B9D"></rect><path d="M11.6467 51.0001C11.1509 50.7658 11 50.3664 11 49.8392C11.0162 46.6601 11.0054 43.4864 11.0054 40.3073C11.0054 39.4447 11.3018 39.1571 12.1803 39.1571C12.9887 39.1571 13.7971 39.1571 14.6002 39.1571C15.3062 39.1571 15.6349 39.4873 15.6349 40.1955C15.6349 43.4278 15.6295 46.6601 15.6457 49.8925C15.6457 50.4037 15.4409 50.7338 15.0421 51.0001H11.6467Z" fill="#A8D3F2"></path><path d="M25.2065 38.3317V34.5349C26.8773 36.1431 28.9684 36.9951 31.4206 36.8513C33.4201 36.7342 35.1447 35.962 36.5729 34.5722C39.3161 31.8937 39.7527 27.7135 37.6292 24.5238C35.5435 21.3926 31.4691 20.1625 27.9282 21.5257C24.8562 22.7079 21.6172 26.6591 23.3095 31.6327C22.8298 31.5795 22.2962 31.4304 21.7896 31.489C20.6201 31.6274 19.7794 32.6179 19.7147 33.8C19.6877 34.3006 19.6985 34.8065 19.6285 35.3017C19.553 35.8342 19.2889 36.2975 18.9009 36.6756C18.1625 36.2655 17.8715 35.3709 18.2326 34.5988C18.4158 34.2047 18.6368 33.8267 18.8362 33.4433C19.3698 32.4315 19.1488 31.6008 18.1841 30.9937C17.8392 30.7754 17.4835 30.5677 17.1439 30.3387C16.0714 29.6092 16.0822 28.2087 17.1601 27.4951C17.5374 27.2449 17.9308 27.0212 18.308 26.7763C19.0895 26.2597 19.3267 25.4024 18.9171 24.5717C18.7123 24.1563 18.4751 23.7569 18.2757 23.3416C17.7368 22.234 18.3727 21.0571 19.6069 20.908C20.0542 20.8548 20.5123 20.8654 20.965 20.8441C22.0052 20.8015 22.6519 20.1891 22.7274 19.1721C22.7597 18.7407 22.7651 18.3041 22.7921 17.8727C22.8567 16.6213 24.0802 15.8812 25.2281 16.403C25.6539 16.5947 26.0527 16.8343 26.4731 17.0367C27.3515 17.4734 28.2246 17.239 28.769 16.4243C29.0169 16.0516 29.2486 15.6628 29.5019 15.2954C30.2295 14.257 31.6362 14.257 32.353 15.2954C32.5685 15.6096 32.7626 15.9344 32.9674 16.2539C33.6249 17.2763 34.4548 17.5053 35.5327 16.9515C35.8723 16.7758 36.2064 16.5947 36.546 16.4243C37.7155 15.8599 38.9335 16.5415 39.0467 17.8248C39.0844 18.2402 39.0898 18.6608 39.1059 19.0815C39.1383 20.088 39.7796 20.7536 40.8036 20.8228C41.2132 20.8494 41.6228 20.8388 42.0324 20.8654C43.4606 20.9613 44.1666 22.186 43.5145 23.4428C43.3205 23.8155 43.1103 24.1829 42.9271 24.5557C42.5282 25.3651 42.7546 26.2278 43.5091 26.7337C43.9079 26.9999 44.3283 27.2342 44.7218 27.5058C45.7511 28.1981 45.7619 29.5986 44.7325 30.3015C44.3499 30.5624 43.9403 30.7914 43.5522 31.047C42.7546 31.5688 42.5175 32.4421 42.9378 33.2888C43.1373 33.6882 43.3636 34.0769 43.563 34.4816C44.1127 35.5999 43.466 36.7874 42.2157 36.9365C41.7791 36.9898 41.3372 36.9685 40.9006 36.9898C39.785 37.043 39.1383 37.698 39.1006 38.8109C39.0844 39.2423 39.079 39.6789 39.0305 40.1103C38.9011 41.2711 37.7155 41.9261 36.6376 41.4415C36.2118 41.2498 35.8076 41.0155 35.3926 40.8078C34.4926 40.3605 33.6195 40.5895 33.0644 41.4255C32.8165 41.7983 32.5847 42.1817 32.3314 42.5545C31.9703 43.087 31.4583 43.3266 30.8116 43.2947C30.2619 43.268 30.0355 42.8633 30.2996 42.3787C31.3074 40.5309 30.084 38.4116 27.9552 38.3317C27.1899 38.3051 26.4246 38.3264 25.6593 38.3264C25.5084 38.3264 25.3575 38.3264 25.2012 38.3264L25.2065 38.3317Z" fill="#E6EFF5"></path><path d="M23.331 39.7108C23.6921 39.7108 23.9886 39.7108 24.2796 39.7108C25.4437 39.7108 26.6024 39.7108 27.7666 39.7108C28.6181 39.7108 29.1894 40.1635 29.2702 40.8824C29.3511 41.6225 28.9145 42.1764 28.036 42.384C28.6289 42.6982 29.0439 43.1029 28.9954 43.7899C28.9415 44.4821 28.4995 44.8549 27.9067 45.0359C28.1438 45.2489 28.451 45.4247 28.6073 45.6909C28.7582 45.9518 28.8229 46.3086 28.7906 46.6068C28.7259 47.2458 28.2193 47.6186 27.357 47.7464C27.4809 47.8156 27.5779 47.8635 27.6642 47.9221C28.1277 48.2203 28.3756 48.7582 28.2732 49.2587C28.1546 49.8338 27.8097 50.2066 27.2222 50.3397C27.0336 50.3823 26.8288 50.3876 26.6348 50.3876C24.1826 50.3876 21.7304 50.377 19.2836 50.3983C18.5129 50.4036 17.8608 50.0734 17.1763 49.8232C17.0954 49.7912 17.0308 49.6048 17.0308 49.4877C17.0254 46.4897 17.0254 43.497 17.0308 40.499C17.0308 40.3871 17.0685 40.238 17.1493 40.1688C17.9254 39.4499 18.7069 38.747 19.4884 38.0388C20.1782 37.4157 20.7549 36.7022 20.9543 35.7756C21.0621 35.2751 21.0567 34.7532 21.0998 34.2367C21.1214 34.013 21.1106 33.784 21.1699 33.5764C21.3908 32.7989 22.1939 32.522 22.7921 33.0598C23.1209 33.358 23.4011 33.7787 23.5466 34.1941C24.1233 35.8768 24.0802 37.5755 23.5089 39.2582C23.4712 39.3754 23.4173 39.4925 23.3418 39.6949L23.331 39.7108Z" fill="#A8D3F2"></path><path d="M30.9249 35.4987C27.2439 35.5041 24.2419 32.5486 24.2473 28.9116C24.2473 25.2959 27.2223 22.3511 30.8925 22.3351C34.5897 22.3192 37.5754 25.248 37.5808 28.8956C37.5808 32.5486 34.622 35.4881 30.9249 35.4934V35.4987ZM33.6735 26.9839C33.6573 26.9041 33.6357 26.7922 33.6034 26.6911C33.3663 25.9242 32.8327 25.413 32.089 25.1628C31.6794 25.0243 31.55 24.8379 31.6147 24.4492C31.6255 24.396 31.6147 24.3374 31.6147 24.2841C31.5985 23.7995 31.3291 23.512 30.9033 23.5226C30.4937 23.5333 30.2134 23.8102 30.2512 24.2788C30.2943 24.8007 30.1164 25.035 29.6044 25.232C28.7152 25.5781 28.1547 26.2704 28.1493 27.2555C28.1493 28.2407 28.7206 28.9116 29.5937 29.295C29.9817 29.4654 30.4398 29.4761 30.8602 29.5932C31.2428 29.6997 31.6632 29.7849 31.9866 30.0033C32.4177 30.3015 32.38 30.7967 31.9866 31.1535C31.2105 31.8564 29.8793 31.5635 29.4859 30.605C29.3296 30.2163 28.9739 30.0459 28.5966 30.1683C28.2571 30.2802 28.0846 30.6316 28.1762 31.0203C28.3325 31.67 28.7152 32.1919 29.3134 32.4581C29.9062 32.719 30.3374 32.964 30.2296 33.7255C30.1811 34.0663 30.5045 34.2953 30.8817 34.2953C31.259 34.2953 31.4854 34.0929 31.5608 33.7308C31.5824 33.6243 31.5985 33.5072 31.5824 33.3953C31.5177 32.996 31.6578 32.7936 32.0782 32.6498C33.0591 32.309 33.6519 31.4677 33.6573 30.573C33.6573 29.6518 33.0591 28.8264 32.0674 28.459C31.7171 28.3312 31.3291 28.3046 30.9572 28.2247C30.6554 28.1608 30.3105 28.1501 30.0733 27.9904C29.8308 27.8253 29.5613 27.5058 29.5613 27.2555C29.5613 27.0052 29.82 26.6644 30.0625 26.51C30.9141 25.9722 31.9273 26.3236 32.3315 27.2342C32.4824 27.5697 32.7411 27.7294 33.113 27.6602C33.4633 27.591 33.6304 27.3514 33.6627 26.9733L33.6735 26.9839Z" fill="#E6EFF5"></path><path d="M22.6142 13.4741C22.431 13.6551 22.2747 13.9001 22.0537 14.0119C21.7843 14.145 21.4717 14.0545 21.3046 13.7883C20.8735 13.0853 20.4531 12.3718 20.0596 11.6476C19.8872 11.3334 20.0165 11.0405 20.3022 10.8435C20.5932 10.6411 20.9597 10.6411 21.1429 10.918C21.6334 11.6636 22.0591 12.457 22.5118 13.2291C22.5388 13.2717 22.528 13.3409 22.5334 13.3942L22.6142 13.4794V13.4741Z" fill="#A8D3F2"></path><path d="M41.8438 11.4453C41.8168 11.5251 41.7845 11.6796 41.709 11.8074C41.3641 12.4144 41.0138 13.0215 40.6527 13.6179C40.394 14.0492 40.0275 14.1717 39.661 13.964C39.2999 13.7617 39.2137 13.3676 39.4562 12.9469C39.8173 12.3133 40.1784 11.6849 40.5611 11.0619C40.7389 10.7743 41.0084 10.6412 41.3587 10.7477C41.6659 10.8435 41.8168 11.0565 41.8438 11.4399V11.4453Z" fill="#A8D3F2"></path><path d="M13.0858 18.0591C13.3445 18.1603 13.5008 18.1975 13.6301 18.2721C14.2338 18.6076 14.832 18.9484 15.4302 19.2998C15.8668 19.5554 15.9961 19.9175 15.7967 20.2743C15.5919 20.6417 15.1823 20.7216 14.7296 20.466C14.1044 20.1146 13.4792 19.7578 12.8595 19.3957C12.563 19.2199 12.3852 18.9324 12.5415 18.6182C12.6547 18.3892 12.9133 18.2295 13.0912 18.0591H13.0858Z" fill="#A8D3F2"></path><path d="M31.6147 9.83183C31.6147 10.1939 31.6255 10.5614 31.6147 10.9235C31.5985 11.3654 31.3021 11.6637 30.9087 11.6583C30.526 11.653 30.2511 11.3708 30.2458 10.9394C30.235 10.1993 30.235 9.45907 30.2458 8.71356C30.2511 8.28223 30.5314 8.00533 30.9194 8C31.3021 8 31.5985 8.2769 31.6147 8.69759C31.6308 9.07567 31.6147 9.45375 31.6147 9.83183Z" fill="#A8D3F2"></path><path d="M46.5541 20.695C46.3709 20.5299 46.0799 20.3861 46.0314 20.1838C45.9775 19.9601 46.0529 19.5607 46.22 19.4489C46.9206 18.9803 47.659 18.565 48.4081 18.1815C48.7261 18.0165 49.0602 18.1336 49.2435 18.4638C49.4105 18.7673 49.3998 19.1081 49.1033 19.2945C48.3812 19.7524 47.6212 20.1572 46.8721 20.5832C46.8021 20.6204 46.705 20.6098 46.6242 20.6258C46.5973 20.6471 46.5757 20.6737 46.5487 20.695H46.5541Z" fill="#A8D3F2"></path></svg>